<?xml version="1.0" standalone="no"?>
<!DOCTYPE svg PUBLIC "-//W3C//DTD SVG 20010904//EN"
 "http://www.w3.org/TR/2001/REC-SVG-20010904/DTD/svg10.dtd">
<svg version="1.0" xmlns="http://www.w3.org/2000/svg"
 width="640.000000pt" height="640.000000pt" viewBox="0 0 640.000000 640.000000"
 preserveAspectRatio="xMidYMid meet">

<g transform="translate(0.000000,640.000000) scale(0.100000,-0.100000)"
fill="#000000" stroke="none">
<path d="M3055 5132 c-16 -1 -43 -8 -58 -14 -33 -13 -91 -85 -107 -134 -6 -19
-16 -34 -21 -34 -5 0 -9 -8 -9 -17 0 -10 -23 -38 -52 -63 -28 -25 -64 -57 -80
-72 -16 -16 -32 -28 -35 -28 -3 0 -20 -12 -39 -27 -18 -16 -58 -46 -89 -68
-31 -22 -96 -73 -145 -112 -253 -206 -391 -374 -527 -641 -62 -121 -73 -151
-74 -195 0 -36 -3 -46 -8 -32 -9 21 -14 3 -42 -145 -18 -94 -15 -289 5 -395
18 -96 82 -242 133 -305 54 -67 178 -192 238 -240 62 -49 187 -123 227 -135
13 -4 41 -15 63 -24 42 -19 95 -34 95 -28 0 3 -21 12 -47 22 -46 17 -171 77
-223 106 -138 78 -302 235 -375 360 -47 80 -96 289 -67 289 4 0 6 30 4 68 -3
58 8 157 34 315 6 32 4 36 -10 31 -12 -4 -16 0 -16 15 0 23 10 27 26 11 13
-13 86 201 73 214 -32 34 24 157 109 245 39 40 56 51 64 43 14 -14 15 -69 4
-96 -8 -17 -7 -17 20 -3 36 19 145 100 194 144 19 18 40 33 46 33 6 0 27 17
47 38 19 20 66 59 103 86 60 44 66 51 50 60 -43 25 -76 59 -76 77 0 11 23 44
50 73 48 51 49 54 25 54 -36 0 -41 8 -20 32 29 32 80 61 153 85 73 24 88 41
45 48 -15 2 0 5 34 6 34 0 69 -2 77 -5 15 -6 15 -8 -1 -20 -21 -15 -5 -18 30
-5 13 5 48 16 78 25 l54 16 -35 -31 c-19 -16 -29 -28 -22 -24 6 3 12 1 12 -4
0 -6 12 -11 26 -11 24 0 26 -3 21 -29 -3 -15 -1 -33 4 -38 7 -7 7 -23 0 -48
-6 -21 -8 -42 -4 -48 10 -16 159 2 228 28 35 14 78 26 96 27 17 1 33 6 36 11
3 5 24 5 47 1 22 -4 49 -7 59 -6 26 1 20 -17 -8 -24 -29 -7 -33 -20 -7 -21 25
-1 132 38 132 49 0 5 -10 13 -22 18 -26 10 -5 13 30 4 40 -11 23 -30 -68 -73
-49 -24 -90 -47 -90 -51 0 -4 9 -18 19 -32 14 -17 48 -33 112 -53 51 -15 102
-29 113 -29 12 -1 44 -13 71 -27 51 -27 233 -89 260 -89 23 0 40 57 36 123 -1
9 -20 38 -42 62 -23 25 -39 48 -36 52 4 3 30 -6 59 -20 29 -14 62 -26 73 -27
53 -1 110 2 114 6 7 6 -72 78 -126 115 -26 18 -63 47 -81 65 -18 18 -70 54
-115 80 -45 25 -114 76 -152 113 -39 36 -106 94 -148 129 -74 60 -77 62 -77
36 l0 -26 -19 23 c-16 19 -17 25 -5 27 8 2 14 7 14 12 0 11 -59 60 -73 60 -7
1 -43 5 -82 9 -38 4 -94 5 -122 1 -29 -3 -53 -3 -53 2 0 8 -63 8 -135 0z m-11
-25 c15 -11 16 -17 5 -40 -12 -26 -32 -33 -63 -21 -22 8 -20 27 2 20 20 -7 48
40 28 48 -7 3 -7 5 0 5 5 1 18 -5 28 -12z m286 3 c0 -5 -4 -10 -10 -10 -5 0
-10 5 -10 10 0 6 5 10 10 10 6 0 10 -4 10 -10z m-70 -20 c0 -5 -5 -10 -11 -10
-5 0 -7 5 -4 10 3 6 8 10 11 10 2 0 4 -4 4 -10z m150 1 c0 -15 -42 -41 -65
-41 -20 1 -20 1 -1 15 11 8 16 15 10 16 -5 1 2 5 16 9 35 11 40 11 40 1z
m-176 -46 c-6 -16 -24 -21 -24 -7 0 11 11 22 21 22 5 0 6 -7 3 -15z m113 -21
c2 -7 -6 -10 -22 -7 -14 3 -25 10 -25 15 0 13 43 6 47 -8z m-207 -32 c34 -5
38 -11 17 -27 -17 -12 -17 -14 -1 -23 16 -9 15 -12 -10 -38 l-26 -29 6 33 c6
27 4 31 -10 26 -12 -5 -15 -2 -10 10 3 9 10 16 15 16 17 0 9 19 -11 25 -11 3
-20 11 -20 16 0 6 6 7 13 2 6 -4 23 -9 37 -11z m130 14 c0 -2 -7 -7 -16 -10
-8 -3 -12 -2 -9 4 6 10 25 14 25 6z m310 -71 c7 -8 8 -15 2 -15 -5 0 -15 7
-22 15 -7 8 -8 15 -2 15 5 0 15 -7 22 -15z m-40 -60 c0 -25 -4 -45 -10 -45
-11 0 -14 49 -4 74 10 26 14 18 14 -29z m60 11 c-37 -14 -54 -11 -30 4 8 6 26
9 40 9 22 0 21 -2 -10 -13z m-530 -38 c0 -5 -9 -8 -20 -8 -19 0 -28 28 -13 43
6 7 32 -21 33 -35z m456 -86 c-16 -31 -34 -48 -41 -40 -3 2 7 21 22 41 31 43
41 42 19 -1z m-336 -57 c0 -8 -4 -15 -10 -15 -23 0 -7 -31 23 -44 20 -9 25
-15 14 -15 -10 -1 -33 6 -52 13 -26 11 -35 21 -35 39 0 30 7 37 37 37 14 0 23
-6 23 -15z m370 -14 c0 -25 -14 -41 -36 -41 -28 0 -30 7 -7 32 17 19 43 24 43
9z m-1110 -165 c0 -2 -7 -7 -16 -10 -8 -3 -12 -2 -9 4 6 10 25 14 25 6z"/>
<path d="M2763 4712 c-24 -9 -43 -19 -43 -24 0 -8 70 19 85 33 12 11 9 11 -42
-9z"/>
<path d="M2900 4556 c0 -9 5 -16 10 -16 6 0 10 4 10 9 0 6 -4 13 -10 16 -5 3
-10 -1 -10 -9z"/>
<path d="M4461 4169 c-8 -37 -8 -56 1 -72 16 -31 79 -109 105 -130 12 -9 25
-32 28 -50 4 -17 18 -58 31 -89 13 -32 33 -95 43 -140 21 -87 21 -120 1 -46
-25 88 -61 194 -76 218 -10 16 -13 18 -8 5 36 -102 74 -245 74 -276 0 -21 5
-41 10 -44 6 -3 10 -25 9 -48 l0 -42 -16 33 c-12 22 -24 32 -40 32 -19 0 -23
-5 -23 -32 -1 -27 -2 -30 -11 -15 -5 9 -17 17 -26 17 -9 0 -32 17 -50 37 -44
48 -49 40 -58 -98 -7 -100 -6 -111 15 -143 12 -20 33 -45 48 -57 27 -21 27
-21 25 -142 -3 -143 3 -161 43 -131 32 23 44 47 20 38 -20 -8 -20 4 -1 50 13
30 20 36 44 36 25 0 32 6 43 36 9 26 14 31 18 18 8 -21 56 89 69 156 8 43 9
42 7 -21 0 -37 -4 -65 -8 -62 -5 2 -8 -17 -8 -42 0 -28 -6 -52 -15 -61 -17
-17 -21 -39 -5 -29 6 3 10 -1 10 -9 0 -9 -4 -16 -9 -16 -5 0 -12 -15 -15 -33
-5 -28 -23 -61 -104 -191 -3 -5 1 -6 7 -1 18 10 86 117 117 182 41 88 65 198
71 329 4 88 2 131 -8 160 l-13 39 -7 -45 c-9 -57 -36 -160 -38 -140 0 8 6 42
14 75 20 83 18 148 -5 234 -12 40 -22 92 -24 115 -3 45 -63 174 -129 279 -45
73 -123 167 -137 167 -4 0 -13 -23 -19 -51z m199 -827 c0 -13 -49 -56 -56 -49
-4 3 4 18 17 32 24 25 39 32 39 17z"/>
<path d="M4064 4155 c-55 -59 -84 -194 -65 -300 33 -176 167 -325 292 -325 37
0 50 5 73 28 26 28 53 98 42 110 -3 3 -6 -2 -6 -11 0 -9 -13 -32 -30 -50 -23
-26 -35 -33 -55 -29 l-25 4 6 127 c4 69 6 131 5 136 -4 45 -10 58 -31 68 -36
18 -62 60 -67 109 -5 39 -2 47 19 64 14 11 23 25 20 33 -3 8 0 11 7 7 17 -11
13 10 -6 29 -23 23 -58 35 -105 35 -34 0 -46 -6 -74 -35z"/>
<path d="M2967 4135 c-119 -30 -187 -104 -227 -246 -22 -75 -23 -88 -12 -160
19 -130 68 -199 180 -252 57 -27 71 -29 142 -25 58 3 92 11 135 33 114 55 154
109 175 234 22 133 -15 275 -92 348 -70 68 -192 95 -301 68z m209 -95 c38 -15
53 -38 54 -82 0 -28 -7 -42 -31 -62 -17 -14 -40 -26 -52 -26 -65 0 -95 117
-41 159 31 24 33 25 70 11z"/>
<path d="M4425 3903 c22 -59 51 -112 66 -121 15 -9 18 -6 24 26 6 34 4 40 -35
75 -46 40 -66 47 -55 20z"/>
<path d="M3541 3451 c-44 -27 41 -85 152 -104 82 -14 159 2 216 44 65 47 49
91 -17 46 -82 -56 -180 -58 -281 -7 -34 17 -63 25 -70 21z m335 -56 c-11 -8
-25 -15 -30 -15 -6 1 0 7 14 15 32 19 40 18 16 0z m-49 -21 c-3 -3 -12 -4 -19
-1 -8 3 -5 6 6 6 11 1 17 -2 13 -5z"/>
<path d="M3615 2353 c-48 -10 -49 -13 -22 -41 15 -16 27 -36 27 -46 0 -29 -49
-205 -67 -240 -17 -33 -112 -178 -122 -186 -3 -3 -19 -22 -34 -42 -44 -60 -98
-107 -157 -135 -51 -26 -62 -27 -196 -28 -78 0 -145 3 -149 7 -10 10 -13 228
-4 234 14 8 37 100 59 229 24 143 25 194 6 201 -18 7 -69 -19 -123 -63 -38
-31 -41 -38 -36 -69 4 -22 2 -34 -6 -34 -7 0 -9 9 -5 25 4 14 2 25 -4 25 -13
0 -72 -79 -72 -96 0 -7 -6 -19 -13 -26 -7 -7 -26 -38 -42 -69 l-29 -57 28 -37
c31 -41 47 -41 21 -1 -29 44 7 21 54 -34 22 -26 61 -58 86 -70 45 -22 51 -40
14 -40 -11 0 -42 24 -71 55 -52 56 -70 65 -46 24 13 -23 46 -58 83 -88 12 -9
29 -41 38 -71 17 -53 16 -57 -3 -125 -27 -90 -29 -307 -3 -348 4 -6 6 -22 4
-35 -1 -13 2 -28 7 -35 9 -12 20 -53 42 -155 7 -28 16 -55 21 -58 5 -3 9 -10
9 -16 0 -6 -11 -1 -24 11 -21 20 -32 22 -98 19 -57 -2 -72 0 -70 10 2 9 -2 11
-10 5 -46 -29 -148 -44 -148 -22 0 9 -17 10 -57 4 -32 -4 -86 -7 -120 -6 -61
2 -63 1 -63 -24 0 -19 8 -29 35 -42 19 -9 35 -20 35 -24 0 -21 -73 -33 -205
-33 -108 -1 -146 -4 -159 -15 -11 -9 -35 -14 -62 -12 -29 2 -44 -2 -44 -10 0
-9 -16 -10 -58 -6 -62 7 -88 -2 -79 -27 4 -10 1 -16 -8 -16 -8 0 -15 5 -15 10
0 6 -18 10 -40 10 -22 0 -40 -4 -40 -10 0 -6 -100 -10 -280 -10 -180 0 -280
-4 -280 -10 0 -5 -18 -10 -40 -10 -22 0 -40 5 -40 10 0 6 -60 10 -160 10 -113
0 -160 -3 -160 -11 0 -8 -18 -10 -60 -6 -33 4 -87 4 -120 0 -50 -5 -60 -9 -60
-24 0 -15 -8 -19 -40 -19 -22 0 -40 -4 -40 -10 0 -5 -18 -10 -40 -10 -22 0
-40 5 -40 10 0 6 -18 10 -40 10 -22 0 -40 5 -40 10 0 6 -33 10 -80 10 -73 0
-80 -2 -80 -20 0 -17 -7 -20 -40 -20 l-40 0 0 -320 0 -320 800 0 800 0 40 40
c22 22 40 49 40 60 0 18 7 20 80 20 73 0 80 -2 80 -20 0 -11 5 -20 10 -20 6 0
10 18 10 40 0 22 -4 40 -10 40 -6 0 -10 47 -10 120 l0 120 40 0 40 0 0 80 0
80 120 0 120 0 0 40 0 40 100 0 100 0 0 39 c0 36 2 39 34 45 19 4 64 4 100 0
55 -6 66 -4 66 8 0 11 17 17 68 22 81 8 181 26 202 35 23 11 179 5 230 -9 44
-11 113 -7 135 9 22 16 93 32 165 36 57 3 75 8 74 18 -1 12 19 14 110 13 91
-1 117 3 146 18 l34 19 -33 28 c-33 27 -33 27 -14 48 11 12 29 41 42 65 12 26
37 54 57 67 41 25 40 36 -2 15 -15 -9 -30 -14 -31 -12 -7 6 9 36 17 31 4 -3 7
3 6 12 -1 12 7 18 21 19 31 2 73 31 73 51 0 14 -4 13 -23 -5 -41 -39 -42 -23
-2 18 21 22 35 40 29 40 -5 0 -16 -6 -23 -13 -11 -10 -13 -9 -7 6 3 10 6 24 6
30 0 7 5 6 11 -3 8 -12 9 -10 4 7 -10 36 57 92 104 89 99 -7 294 74 337 140
14 20 15 27 4 34 -10 6 -9 14 5 38 12 19 16 39 11 56 -7 28 -26 36 -26 10 0
-8 -6 -22 -14 -29 -11 -12 -20 -9 -55 21 -49 42 -52 35 -11 -29 34 -54 35 -57
18 -57 -16 0 -58 62 -76 110 -8 19 -29 88 -47 152 -19 65 -48 146 -64 182 -17
35 -31 68 -31 74 0 14 -29 36 -37 28 -4 -3 -1 -22 5 -40 8 -23 9 -41 3 -57 -9
-22 -10 -21 -10 13 -1 42 -20 90 -32 82 -13 -7 -11 -280 2 -451 l11 -145 -28
-29 c-25 -26 -63 -42 -50 -20 4 5 -3 7 -14 4 -16 -4 -19 -2 -13 12 4 13 3 16
-5 11 -15 -9 -15 -7 -1 35 6 19 19 40 28 48 15 12 14 13 -1 8 -10 -4 -18 -2
-18 3 0 6 6 10 14 10 19 0 26 22 33 110 5 71 4 79 -21 121 -15 24 -46 60 -68
80 l-40 36 16 114 c28 204 32 215 73 204 32 -8 29 -1 -18 50 l-42 45 -81 -1
c-44 -1 -90 -3 -101 -6z m109 -227 c-3 -14 -10 -26 -15 -26 -4 0 -3 14 3 31
12 36 22 33 12 -5z m10 -449 c-3 -8 0 -35 6 -61 11 -49 5 -79 -11 -55 -10 16
-12 113 -2 122 10 11 13 8 7 -6z m67 -386 c-8 -6 -10 -11 -3 -15 8 -4 7 -19
-3 -45 -7 -22 -11 -41 -9 -44 3 -2 -2 -7 -11 -10 -17 -7 -21 8 -5 18 6 4 8 10
5 15 -3 5 -1 20 5 35 8 21 7 27 -7 32 -15 6 -14 7 3 14 26 10 42 11 25 0z
m-541 -321 c30 -26 33 -32 20 -43 -8 -7 -20 -21 -26 -32 -14 -25 -41 -41 -51
-31 -4 4 1 14 11 22 26 19 15 27 -18 14 -36 -13 -107 -14 -86 0 17 10 20 36 8
62 -7 13 -5 16 7 12 8 -4 15 -1 15 4 0 6 17 13 38 15 20 2 39 4 42 5 3 1 21
-12 40 -28z m-310 -70 c8 -5 11 -12 7 -16 -4 -4 -15 0 -24 9 -18 18 -8 23 17
7z m-807 -107 c-13 -2 -33 -2 -45 0 -13 2 -3 4 22 4 25 0 35 -2 23 -4z"/>
<path d="M3860 1973 c0 -11 7 -28 15 -39 14 -18 15 -17 13 15 -3 36 -28 57
-28 24z"/>
<path d="M2614 1861 c-24 -15 -33 -33 -56 -112 -15 -52 -29 -106 -33 -121 -6
-31 10 -39 20 -9 3 10 15 29 26 42 30 33 119 166 119 176 0 4 -11 16 -24 25
-22 16 -25 16 -52 -1z"/>
<path d="M2485 1408 c-8 -33 19 -95 47 -104 26 -8 36 3 15 19 -10 6 -26 35
-36 62 -18 47 -20 49 -26 23z"/>
<path d="M2726 1278 c-12 -6 -44 -8 -85 -5 l-66 6 40 -14 c27 -10 51 -12 75
-6 37 8 84 30 65 30 -5 0 -19 -5 -29 -11z"/>
</g>
</svg>
